<svg width="13" height="22" viewBox="0 0 13 22" fill="none" xmlns="http://www.w3.org/2000/svg">
<path d="M5.58215 12.4243L1.44422 16.0425C1.32871 16.1512 1.18603 16.2056 1.01616 16.2056C0.832705 16.2056 0.676429 16.141 0.547331 16.0119C0.425028 15.8828 0.363876 15.7265 0.363876 15.5431C0.363876 15.3528 0.438617 15.1932 0.588099 15.0641L5.24582 10.9873L0.588099 6.9105C0.438617 6.78141 0.363876 6.61833 0.363876 6.42129C0.363876 6.23784 0.425028 6.08496 0.547331 5.96265C0.676429 5.83355 0.832705 5.76901 1.01616 5.76901C1.18603 5.76901 1.32871 5.82336 1.44422 5.93208L5.58215 9.55022V1.20302C5.58215 1.02636 5.6467 0.873476 5.7758 0.744379C5.91169 0.615281 6.06797 0.550732 6.24463 0.550732C6.41449 0.550732 6.56397 0.615281 6.69307 0.744379L11.9113 5.96265C12.0404 6.09175 12.105 6.24123 12.105 6.4111C12.105 6.61494 12.0303 6.78141 11.8808 6.9105L7.22305 10.9873L11.8808 15.0641C11.9623 15.1388 12.0201 15.2135 12.054 15.2883C12.088 15.363 12.105 15.4547 12.105 15.5635C12.105 15.7333 12.0404 15.8828 11.9113 16.0119L6.69307 21.2302C6.56397 21.3593 6.41109 21.4238 6.23443 21.4238C6.05777 21.4238 5.9049 21.3593 5.7758 21.2302C5.6467 21.1011 5.58215 20.9482 5.58215 20.7715V12.4243ZM6.88672 2.77257V9.55022L10.4947 6.39071L6.88672 2.77257ZM6.88672 12.4243V19.1918L10.4947 15.5838L6.88672 12.4243Z" fill="currentColor" fill-opacity="0.8956"/>
</svg>
