<?xml version="1.0" encoding="UTF-8"?>
<svg version="1.1" xmlns="http://www.w3.org/2000/svg" width="96" height="96">
<path d="M0 0 C1.69844958 -0.02153626 3.39678948 -0.05558772 5.09472656 -0.10253906 C7.54615733 -0.16972448 9.99528673 -0.1970302 12.44750977 -0.21606445 C13.20086105 -0.24389511 13.95421234 -0.27172577 14.73039246 -0.30039978 C17.92223147 -0.28804977 20.0374189 -0.23581715 22.62466431 1.74777222 C24.21240234 3.38134766 24.21240234 3.38134766 25.56404114 5.01670837 C27.91867449 7.51354782 30.26860245 7.42515537 33.59448242 7.59448242 C35.13784607 7.62947598 36.68132067 7.65977885 38.22485352 7.6862793 C39.03949066 7.70468872 39.85412781 7.72309814 40.69345093 7.74206543 C44.18034712 7.82077659 47.66743324 7.88868706 51.15454102 7.95727539 C53.69891319 8.00886329 56.24311223 8.06614837 58.78735352 8.1237793 C59.97948959 8.14414246 59.97948959 8.14414246 61.19570923 8.16491699 C66.76043912 8.29217741 66.76043912 8.29217741 67.87329102 9.4050293 C67.97228663 11.21012302 68.00128252 13.01909858 68.00268555 14.8269043 C68.00583771 15.98480469 68.00898987 17.14270508 68.01223755 18.33569336 C68.0092012 20.22626465 68.0092012 20.22626465 68.00610352 22.1550293 C68.00706024 23.43861328 68.00801697 24.72219727 68.00900269 26.04467773 C68.01047932 28.76506753 68.00832621 31.48542455 68.00366211 34.20581055 C67.99796482 37.69987599 68.00124401 41.19386463 68.00723457 44.68792725 C68.01170856 48.01030083 68.00857987 51.33265353 68.00610352 54.6550293 C68.00812775 55.91541016 68.01015198 57.17579102 68.01223755 58.47436523 C68.00750931 60.21121582 68.00750931 60.21121582 68.00268555 61.9831543 C68.00188995 63.00828125 68.00109436 64.0334082 68.00027466 65.08959961 C67.87329102 67.4050293 67.87329102 67.4050293 66.87329102 68.4050293 C64.32277628 68.5054066 61.79931923 68.54120417 59.24829102 68.53442383 C58.4499585 68.53617615 57.65162598 68.53792847 56.82910156 68.53973389 C54.17714292 68.54415297 51.52525039 68.54121422 48.87329102 68.5378418 C47.03865547 68.53851482 45.20402001 68.53948483 43.36938477 68.54074097 C39.51911574 68.54221802 35.66886986 68.54006316 31.81860352 68.53540039 C26.87172604 68.5297031 21.92490282 68.53298207 16.97802734 68.53897285 C13.18806547 68.54257828 9.39811655 68.54143997 5.6081543 68.53884506 C3.78360996 68.53817574 1.95906447 68.53900439 0.13452148 68.54132462 C-2.4109206 68.54385084 -4.95627358 68.54001099 -7.50170898 68.53442383 C-8.26330322 68.53644806 -9.02489746 68.53847229 -9.80957031 68.54055786 C-15.01244641 68.51929187 -15.01244641 68.51929187 -16.12670898 67.4050293 C-16.22610524 65.35490083 -16.25470451 63.30131538 -16.25610352 61.2487793 C-16.25925568 59.93071289 -16.26240784 58.61264648 -16.26565552 57.25463867 C-16.26386574 55.80476854 -16.26181479 54.35489872 -16.25952148 52.9050293 C-16.26019456 51.42911768 -16.26116461 49.95320616 -16.26242065 48.47729492 C-16.26389746 45.380279 -16.26174362 42.28329188 -16.25708008 39.1862793 C-16.25138279 35.20794381 -16.25466189 31.22967578 -16.26065254 27.25134277 C-16.26425862 24.20255013 -16.26311936 21.15377359 -16.26052475 18.10498047 C-16.25985561 16.63769523 -16.26068346 15.17040855 -16.2630043 13.703125 C-16.26553155 11.65584337 -16.26099959 9.60855664 -16.25610352 7.5612793 C-16.25530792 6.3940332 -16.25451233 5.22678711 -16.25369263 4.02416992 C-15.95130357 -2.2128496 -4.96528064 0.04734304 0 0 Z " fill="#FDCD48" transform="translate(22.126708984375,13.594970703125)"/>
<path d="M0 0 C1.69844958 -0.02153626 3.39678948 -0.05558772 5.09472656 -0.10253906 C7.54615733 -0.16972448 9.99528673 -0.1970302 12.44750977 -0.21606445 C13.20086105 -0.24389511 13.95421234 -0.27172577 14.73039246 -0.30039978 C17.90081213 -0.28813265 20.03276897 -0.22250992 22.62466431 1.71261597 C24.21240234 3.31884766 24.21240234 3.31884766 25.56404114 4.91905212 C26.99590894 6.67281807 26.99590894 6.67281807 29.87329102 8.4050293 C29.15141602 8.7969043 28.42954102 9.1887793 27.68579102 9.5925293 C24.75929975 11.28026712 24.75929975 11.28026712 22.72021484 13.98779297 C19.02764421 17.12304224 16.128689 17.04980194 11.51000977 16.89331055 C10.71802689 16.88623581 9.92604401 16.87916107 9.11006165 16.87187195 C6.59265713 16.84399174 4.07751745 16.78127129 1.56079102 16.7175293 C-0.15076529 16.69243791 -1.86235663 16.6696262 -3.57397461 16.64916992 C-7.75908552 16.59418676 -11.94251394 16.50796347 -16.12670898 16.4050293 C-16.15355994 13.92579129 -16.17347446 11.4468409 -16.18920898 8.9675293 C-16.20177734 7.90695313 -16.20177734 7.90695313 -16.21459961 6.82495117 C-16.22324486 5.0180937 -16.1789091 3.21115327 -16.12670898 1.4050293 C-13.35950834 -1.36217135 -3.8995517 0.03718151 0 0 Z " fill="#D59300" transform="translate(22.126708984375,13.594970703125)"/>
<path d="M0 0 C3 0.125 3 0.125 4 1.125 C4.07179964 2.64428038 4.08392007 4.16667482 4.0625 5.6875 C4.05347656 6.51378906 4.04445313 7.34007812 4.03515625 8.19140625 C4.02355469 8.82949219 4.01195312 9.46757813 4 10.125 C5.98 10.125 7.96 10.125 10 10.125 C8.55575365 13.36361303 6.74227753 15.74469163 4.375 18.375 C3.74335937 19.08140625 3.11171875 19.7878125 2.4609375 20.515625 C1.97882812 21.04671875 1.49671875 21.5778125 1 22.125 C-2.387199 20.6861898 -4.3594104 18.90380501 -6.75 16.125 C-7.36359375 15.42375 -7.9771875 14.7225 -8.609375 14 C-10 12.125 -10 12.125 -10 10.125 C-8.02 10.125 -6.04 10.125 -4 10.125 C-4.01160156 9.48691406 -4.02320313 8.84882812 -4.03515625 8.19140625 C-4.04417969 7.36511719 -4.05320312 6.53882813 -4.0625 5.6875 C-4.07410156 4.86378906 -4.08570313 4.04007813 -4.09765625 3.19140625 C-3.94031352 -0.13796585 -3.39108872 0.14129536 0 0 Z " fill="#2CB0E6" transform="translate(48,45.875)"/>
<path d="M0 0 C11.22 0 22.44 0 34 0 C34 1.32 34 2.64 34 4 C22.78 4 11.56 4 0 4 C0 2.68 0 1.36 0 0 Z " fill="#2AB0E8" transform="translate(31,72)"/>
<path d="M0 0 C1.98 0 3.96 0 6 0 C6 1.32 6 2.64 6 4 C4.02 4 2.04 4 0 4 C0 2.68 0 1.36 0 0 Z " fill="#2FB1E5" transform="translate(45,40)"/>
<path d="M0 0 C1.98 0 3.96 0 6 0 C6 1.32 6 2.64 6 4 C4.02 4 2.04 4 0 4 C0 2.68 0 1.36 0 0 Z " fill="#2FB1E5" transform="translate(45,34)"/>
</svg>
