<?xml version="1.0" encoding="UTF-8"?>
<svg version="1.1" xmlns="http://www.w3.org/2000/svg" width="96" height="96">
<path d="M0 0 C0.72030396 -0.00175232 1.44060791 -0.00350464 2.18273926 -0.00531006 C4.57497534 -0.00972835 6.9671381 -0.00679068 9.359375 -0.00341797 C11.01464858 -0.00409101 12.66992207 -0.00506105 14.32519531 -0.00631714 C17.79883767 -0.00779408 21.27245437 -0.00563968 24.74609375 -0.00097656 C29.20869998 0.00472073 33.67124608 0.0014417 38.1338501 -0.00454903 C41.5532273 -0.00815474 44.97259015 -0.00701601 48.39196777 -0.00442123 C50.03788256 -0.00375199 51.68379863 -0.00458029 53.32971191 -0.00690079 C55.62609331 -0.00942749 57.92237599 -0.0055865 60.21875 0 C61.52811523 0.00079559 62.83748047 0.00159119 64.18652344 0.00241089 C67.109375 0.12939453 67.109375 0.12939453 68.109375 1.12939453 C68.2081267 2.81194688 68.23736404 4.49863481 68.23876953 6.18408203 C68.24192169 7.26189941 68.24507385 8.3397168 68.24832153 9.45019531 C68.24528519 11.20952393 68.24528519 11.20952393 68.2421875 13.00439453 C68.24314423 14.19919434 68.24410095 15.39399414 68.24508667 16.625 C68.24576871 19.15706434 68.24391278 21.68913041 68.23974609 24.22119141 C68.23439821 28.11250713 68.23969033 32.00370742 68.24609375 35.89501953 C68.24543297 38.34814479 68.24415182 40.80126997 68.2421875 43.25439453 C68.24421173 44.42728027 68.24623596 45.60016602 68.24832153 46.80859375 C68.24359329 48.42531982 68.24359329 48.42531982 68.23876953 50.07470703 C68.23797394 51.02877441 68.23717834 51.9828418 68.23635864 52.96582031 C68.109375 55.12939453 68.109375 55.12939453 67.109375 56.12939453 C64.96378673 56.21715058 62.81533079 56.23634672 60.66796875 56.22705078 C59.36279297 56.22382812 58.05761719 56.22060547 56.71289062 56.21728516 C55.3242181 56.20892854 53.93554623 56.20046358 52.546875 56.19189453 C51.15429844 56.18688119 49.76172019 56.182318 48.36914062 56.17822266 C44.9491763 56.16638887 41.52929656 56.14990333 38.109375 56.12939453 C38.109375 58.10939453 38.109375 60.08939453 38.109375 62.12939453 C42.069375 62.12939453 46.029375 62.12939453 50.109375 62.12939453 C50.109375 64.76939453 50.109375 67.40939453 50.109375 70.12939453 C36.909375 70.12939453 23.709375 70.12939453 10.109375 70.12939453 C10.109375 67.48939453 10.109375 64.84939453 10.109375 62.12939453 C14.069375 62.12939453 18.029375 62.12939453 22.109375 62.12939453 C22.109375 60.14939453 22.109375 58.16939453 22.109375 56.12939453 C21.23611572 56.13463135 20.36285645 56.13986816 19.46313477 56.14526367 C16.23348227 56.16227204 13.00385255 56.17482822 9.77416992 56.18432617 C8.37442272 56.18936533 6.9746808 56.1961967 5.57495117 56.20483398 C3.56691723 56.21691773 1.55884543 56.2220926 -0.44921875 56.22705078 C-1.65892334 56.2322876 -2.86862793 56.23752441 -4.11499023 56.24291992 C-6.890625 56.12939453 -6.890625 56.12939453 -7.890625 55.12939453 C-7.9893767 53.44684218 -8.01861404 51.76015425 -8.02001953 50.07470703 C-8.02317169 48.99688965 -8.02632385 47.91907227 -8.02957153 46.80859375 C-8.0275473 45.63570801 -8.02552307 44.46282227 -8.0234375 43.25439453 C-8.02439423 42.05959473 -8.02535095 40.86479492 -8.02633667 39.63378906 C-8.02701871 37.10172473 -8.02516278 34.56965866 -8.02099609 32.03759766 C-8.01564821 28.14628193 -8.02094033 24.25508164 -8.02734375 20.36376953 C-8.02668297 17.91064427 -8.02540182 15.45751909 -8.0234375 13.00439453 C-8.02546173 11.83150879 -8.02748596 10.65862305 -8.02957153 9.45019531 C-8.02641937 8.37237793 -8.02326721 7.29456055 -8.02001953 6.18408203 C-8.01922394 5.23001465 -8.01842834 4.27594727 -8.01760864 3.29296875 C-7.741602 -1.40969086 -3.90246224 0.0023712 0 0 Z " fill="#1DA1E6" transform="translate(17.890625,13.87060546875)"/>
<path d="M0 0 C0.72030396 -0.00175232 1.44060791 -0.00350464 2.18273926 -0.00531006 C4.57497534 -0.00972835 6.9671381 -0.00679068 9.359375 -0.00341797 C11.01464858 -0.00409101 12.66992207 -0.00506105 14.32519531 -0.00631714 C17.79883767 -0.00779408 21.27245437 -0.00563968 24.74609375 -0.00097656 C29.20869998 0.00472073 33.67124608 0.0014417 38.1338501 -0.00454903 C41.5532273 -0.00815474 44.97259015 -0.00701601 48.39196777 -0.00442123 C50.03788256 -0.00375199 51.68379863 -0.00458029 53.32971191 -0.00690079 C55.62609331 -0.00942749 57.92237599 -0.0055865 60.21875 0 C61.52811523 0.00079559 62.83748047 0.00159119 64.18652344 0.00241089 C67.109375 0.12939453 67.109375 0.12939453 68.109375 1.12939453 C68.2081267 2.81194688 68.23736404 4.49863481 68.23876953 6.18408203 C68.24192169 7.26189941 68.24507385 8.3397168 68.24832153 9.45019531 C68.24528519 11.20952393 68.24528519 11.20952393 68.2421875 13.00439453 C68.24314423 14.19919434 68.24410095 15.39399414 68.24508667 16.625 C68.24576871 19.15706434 68.24391278 21.68913041 68.23974609 24.22119141 C68.23439821 28.11250713 68.23969033 32.00370742 68.24609375 35.89501953 C68.24543297 38.34814479 68.24415182 40.80126997 68.2421875 43.25439453 C68.24421173 44.42728027 68.24623596 45.60016602 68.24832153 46.80859375 C68.24359329 48.42531982 68.24359329 48.42531982 68.23876953 50.07470703 C68.23797394 51.02877441 68.23717834 51.9828418 68.23635864 52.96582031 C68.109375 55.12939453 68.109375 55.12939453 67.109375 56.12939453 C64.96378673 56.21715058 62.81533079 56.23634672 60.66796875 56.22705078 C59.36279297 56.22382812 58.05761719 56.22060547 56.71289062 56.21728516 C55.3242181 56.20892854 53.93554623 56.20046358 52.546875 56.19189453 C51.15429844 56.18688119 49.76172019 56.182318 48.36914062 56.17822266 C44.9491763 56.16638887 41.52929656 56.14990333 38.109375 56.12939453 C38.109375 58.10939453 38.109375 60.08939453 38.109375 62.12939453 C42.069375 62.12939453 46.029375 62.12939453 50.109375 62.12939453 C50.109375 64.76939453 50.109375 67.40939453 50.109375 70.12939453 C36.909375 70.12939453 23.709375 70.12939453 10.109375 70.12939453 C10.109375 67.48939453 10.109375 64.84939453 10.109375 62.12939453 C14.069375 62.12939453 18.029375 62.12939453 22.109375 62.12939453 C22.109375 60.14939453 22.109375 58.16939453 22.109375 56.12939453 C21.23611572 56.13463135 20.36285645 56.13986816 19.46313477 56.14526367 C16.23348227 56.16227204 13.00385255 56.17482822 9.77416992 56.18432617 C8.37442272 56.18936533 6.9746808 56.1961967 5.57495117 56.20483398 C3.56691723 56.21691773 1.55884543 56.2220926 -0.44921875 56.22705078 C-1.65892334 56.2322876 -2.86862793 56.23752441 -4.11499023 56.24291992 C-6.890625 56.12939453 -6.890625 56.12939453 -7.890625 55.12939453 C-7.9893767 53.44684218 -8.01861404 51.76015425 -8.02001953 50.07470703 C-8.02317169 48.99688965 -8.02632385 47.91907227 -8.02957153 46.80859375 C-8.0275473 45.63570801 -8.02552307 44.46282227 -8.0234375 43.25439453 C-8.02439423 42.05959473 -8.02535095 40.86479492 -8.02633667 39.63378906 C-8.02701871 37.10172473 -8.02516278 34.56965866 -8.02099609 32.03759766 C-8.01564821 28.14628193 -8.02094033 24.25508164 -8.02734375 20.36376953 C-8.02668297 17.91064427 -8.02540182 15.45751909 -8.0234375 13.00439453 C-8.02546173 11.83150879 -8.02748596 10.65862305 -8.02957153 9.45019531 C-8.02641937 8.37237793 -8.02326721 7.29456055 -8.02001953 6.18408203 C-8.01922394 5.23001465 -8.01842834 4.27594727 -8.01760864 3.29296875 C-7.741602 -1.40969086 -3.90246224 0.0023712 0 0 Z M-3.890625 4.12939453 C-3.890625 19.96939453 -3.890625 35.80939453 -3.890625 52.12939453 C18.549375 52.12939453 40.989375 52.12939453 64.109375 52.12939453 C64.109375 36.28939453 64.109375 20.44939453 64.109375 4.12939453 C41.669375 4.12939453 19.229375 4.12939453 -3.890625 4.12939453 Z " fill="#97A0A8" transform="translate(17.890625,13.87060546875)"/>
<path d="M0 0 C5.28 0 10.56 0 16 0 C16 1.98 16 3.96 16 6 C19.96 6 23.92 6 28 6 C28 8.64 28 11.28 28 14 C14.8 14 1.6 14 -12 14 C-12 11.36 -12 8.72 -12 6 C-8.04 6 -4.08 6 0 6 C0 4.02 0 2.04 0 0 Z " fill="#717C85" transform="translate(40,70)"/>
<path d="M0 0 C5.28 0 10.56 0 16 0 C16 1.32 16 2.64 16 4 C10.72 4 5.44 4 0 4 C0 2.68 0 1.36 0 0 Z " fill="#5A6066" transform="translate(40,70)"/>
</svg>
