<svg width="22" height="15" viewBox="0 0 22 15" fill="none" xmlns="http://www.w3.org/2000/svg">
<path d="M1.59953 14.7489C1.42286 14.7489 1.26999 14.6843 1.14089 14.5552C1.01179 14.4261 0.947241 14.2733 0.947241 14.0966C0.947241 13.9403 0.988009 13.8112 1.06954 13.7093C1.15787 13.6074 1.26999 13.5293 1.40588 13.4749C1.91548 13.2846 2.36732 13.057 2.76141 12.792C3.15549 12.527 3.5258 12.1771 3.87233 11.7423C3.34914 11.5316 2.9007 11.2904 2.52699 11.0186C2.16008 10.7401 1.85772 10.4241 1.61991 10.0708C1.38889 9.71747 1.21903 9.31998 1.11031 8.87833C1.0016 8.42989 0.947241 7.92369 0.947241 7.35973C0.947241 7.02 1.01519 6.68027 1.15108 6.34054C1.28697 6.00081 1.46363 5.67806 1.68106 5.37231C1.90528 5.05975 2.15329 4.77778 2.42507 4.52637C2.69686 4.26818 2.96525 4.05075 3.23024 3.87409C3.89611 3.43923 4.49064 2.95342 5.01383 2.41664C5.54381 1.87307 6.0568 1.29213 6.55281 0.673821C6.62755 0.585491 6.70569 0.517544 6.78722 0.469982C6.87555 0.422419 6.97747 0.398638 7.09298 0.398638C7.21528 0.398638 7.33079 0.436009 7.43951 0.51075C7.54822 0.578696 7.62976 0.670423 7.68411 0.785932L9.57982 5.03597C9.74289 5.40968 9.86859 5.80037 9.95692 6.20804C10.0452 6.61572 10.0894 7.0234 10.0894 7.43108C10.0894 8.21246 9.91955 8.92929 9.57982 9.58158C9.24688 10.2339 8.78824 10.8114 8.2039 11.3142C8.16993 11.3414 8.13256 11.3652 8.09179 11.3856C8.05782 11.4059 8.02045 11.4161 7.97968 11.4161C7.89815 11.4161 7.8302 11.3822 7.77584 11.3142C7.72148 11.2463 7.69431 11.1749 7.69431 11.1002C7.69431 11.0526 7.7045 11.0084 7.72488 10.9677C8.01026 10.2678 8.23788 9.53741 8.40774 8.77641C8.57761 8.00862 8.66254 7.24423 8.66254 6.48323C8.66254 6.2658 8.58101 6.07895 8.41793 5.92267C8.25486 5.76639 8.06461 5.68826 7.84719 5.68826C7.61617 5.68826 7.42592 5.763 7.27644 5.91248C7.12695 6.05517 7.04542 6.23862 7.03183 6.46284C6.99106 6.94526 6.93671 7.41749 6.86876 7.87952C6.80761 8.33476 6.71588 8.78661 6.59358 9.23505C6.47807 9.6767 6.32859 10.1116 6.14513 10.5396C5.96168 10.9609 5.73406 11.3754 5.46227 11.783C5.01383 12.4625 4.48384 13.0638 3.87233 13.587C3.26761 14.1034 2.57455 14.4805 1.79317 14.7183C1.73202 14.7387 1.66747 14.7489 1.59953 14.7489ZM21.8203 8.87833C21.8203 9.23845 21.6912 9.5476 21.433 9.8058C21.1816 10.0572 20.8759 10.1829 20.5158 10.1829H19.2112V11.5588C19.2112 11.9869 19.1229 12.3946 18.9462 12.7818C18.7763 13.1691 18.5453 13.5089 18.2532 13.801C17.9678 14.0864 17.6314 14.3174 17.2442 14.4941C16.8569 14.664 16.4492 14.7489 16.0211 14.7489H5.02402C5.20068 14.5994 5.36715 14.4431 5.52342 14.2801C5.68649 14.117 5.84617 13.9471 6.00244 13.7705C6.58678 13.7569 7.15413 13.6482 7.7045 13.4443H15.9498C16.2148 13.4443 16.4662 13.3934 16.704 13.2914C16.9418 13.1895 17.149 13.0502 17.3257 12.8736C17.5091 12.6901 17.6518 12.4795 17.7538 12.2417C17.8557 12.0039 17.9066 11.7525 17.9066 11.4875V4.96463C17.9066 4.69964 17.8557 4.44824 17.7538 4.21042C17.6518 3.97261 17.5091 3.76538 17.3257 3.58872C17.149 3.40526 16.9418 3.26257 16.704 3.16065C16.4662 3.05874 16.2148 3.00778 15.9498 3.00778H10.4563L9.87538 1.70321H16.0211C16.456 1.70321 16.8637 1.79154 17.2442 1.9682C17.6314 2.13806 17.9678 2.36908 18.2532 2.66125C18.5453 2.94662 18.7763 3.28296 18.9462 3.67025C19.1161 4.05755 19.2044 4.46522 19.2112 4.89328V5.35192V6.2692H20.5158C20.6924 6.2692 20.8589 6.30317 21.0152 6.37112C21.1715 6.43906 21.3107 6.53419 21.433 6.65649C21.5553 6.77879 21.6505 6.91808 21.7184 7.07436C21.7864 7.23064 21.8203 7.3971 21.8203 7.57377V8.87833ZM9.70212 12.1398C10.3408 11.5011 10.8402 10.7808 11.2003 9.97906C11.5604 9.1773 11.7405 8.32117 11.7405 7.41069C11.7405 6.88751 11.6794 6.37451 11.5571 5.87171C11.4347 5.36211 11.2751 4.86611 11.078 4.38369C11.0712 4.3701 11.0644 4.35991 11.0576 4.35311C11.0509 4.33952 11.0441 4.32593 11.0373 4.31234H15.6236C15.8954 4.31234 16.1264 4.40747 16.3167 4.59772C16.5069 4.78797 16.6021 5.01899 16.6021 5.29077V11.1613C16.6021 11.4331 16.5069 11.6641 16.3167 11.8544C16.1264 12.0446 15.8954 12.1398 15.6236 12.1398H9.70212Z" fill="white"/>
</svg>
