<svg width="16" height="11" viewBox="0 0 16 11" fill="none" xmlns="http://www.w3.org/2000/svg">
<path d="M16 6C16 6.27604 15.901 6.51302 15.7031 6.71094C15.5104 6.90365 15.276 7 15 7H14V8.05469C14 8.38281 13.9323 8.69531 13.7969 8.99219C13.6667 9.28906 13.4896 9.54948 13.2656 9.77344C13.0469 9.99219 12.7891 10.1693 12.4922 10.3047C12.1953 10.4349 11.8828 10.5 11.5547 10.5H2.44531C2.11719 10.5 1.80469 10.4349 1.50781 10.3047C1.21094 10.1693 0.950521 9.99219 0.726562 9.77344C0.507812 9.54948 0.330729 9.28906 0.195312 8.99219C0.0651042 8.69531 0 8.38281 0 8.05469V2.94531C0 2.61719 0.0651042 2.30469 0.195312 2.00781C0.330729 1.71094 0.507812 1.45312 0.726562 1.23438C0.950521 1.01042 1.21094 0.833333 1.50781 0.703125C1.80469 0.567708 2.11719 0.5 2.44531 0.5H11.5547C11.888 0.5 12.2005 0.567708 12.4922 0.703125C12.7891 0.833333 13.0469 1.01042 13.2656 1.23438C13.4896 1.45312 13.6667 1.71094 13.7969 2.00781C13.9271 2.30469 13.9948 2.61719 14 2.94531V3.29688V4H15C15.1354 4 15.263 4.02604 15.3828 4.07812C15.5026 4.13021 15.6094 4.20312 15.7031 4.29688C15.7969 4.39062 15.8698 4.4974 15.9219 4.61719C15.974 4.73698 16 4.86458 16 5V6ZM13 3C13 2.79688 12.9609 2.60417 12.8828 2.42188C12.8047 2.23958 12.6953 2.08073 12.5547 1.94531C12.4193 1.80469 12.2604 1.69531 12.0781 1.61719C11.8958 1.53906 11.7031 1.5 11.5 1.5H2.5C2.29688 1.5 2.10417 1.53906 1.92188 1.61719C1.73958 1.69531 1.57812 1.80469 1.4375 1.94531C1.30208 2.08073 1.19531 2.23958 1.11719 2.42188C1.03906 2.60417 1 2.79688 1 3V8C1 8.20312 1.03906 8.39583 1.11719 8.57812C1.19531 8.76042 1.30208 8.92188 1.4375 9.0625C1.57812 9.19792 1.73958 9.30469 1.92188 9.38281C2.10417 9.46094 2.29688 9.5 2.5 9.5H11.5C11.7031 9.5 11.8958 9.46094 12.0781 9.38281C12.2604 9.30469 12.4193 9.19792 12.5547 9.0625C12.6953 8.92188 12.8047 8.76042 12.8828 8.57812C12.9609 8.39583 13 8.20312 13 8V3ZM10.25 2.5C10.4583 2.5 10.6354 2.57292 10.7812 2.71875C10.9271 2.86458 11 3.04167 11 3.25V7.75C11 7.95833 10.9271 8.13542 10.7812 8.28125C10.6354 8.42708 10.4583 8.5 10.25 8.5H2.75C2.54167 8.5 2.36458 8.42708 2.21875 8.28125C2.07292 8.13542 2 7.95833 2 7.75V3.25C2 3.04167 2.07292 2.86458 2.21875 2.71875C2.36458 2.57292 2.54167 2.5 2.75 2.5H10.25Z" fill="white"/>
</svg>
