<svg width="31" height="28" viewBox="0 0 31 28" fill="none" xmlns="http://www.w3.org/2000/svg">
<rect x="0.907837" y="4" width="29" height="23" rx="1.5" fill="url(#paint0_linear_64_10813)" stroke="url(#paint1_linear_64_10813)"/>
<path d="M0.407837 1.5C0.407837 0.947715 0.855552 0.5 1.40784 0.5H10.3416C10.6929 0.5 11.0184 0.684299 11.1991 0.985504L12.9991 3.9855C13.3991 4.65203 12.9189 5.5 12.1416 5.5H0.407837V1.5Z" fill="#E09F00"/>
<path d="M5.40784 21.5C5.40784 20.3954 6.30327 19.5 7.40784 19.5H23.4078C24.5124 19.5 25.4078 20.3954 25.4078 21.5V27.5H5.40784V21.5Z" fill="#036ABB"/>
<path d="M22.4078 23H8.40784" stroke="#114A8B"/>
<defs>
<linearGradient id="paint0_linear_64_10813" x1="15.4078" y1="3.5" x2="15.4078" y2="27.5" gradientUnits="userSpaceOnUse">
<stop stop-color="#FFCF4D"/>
<stop offset="1" stop-color="#F4B509"/>
</linearGradient>
<linearGradient id="paint1_linear_64_10813" x1="15.4078" y1="3.5" x2="15.4078" y2="27.5" gradientUnits="userSpaceOnUse">
<stop stop-color="#FFD04E"/>
<stop offset="1" stop-color="#F4B509"/>
</linearGradient>
</defs>
</svg>
