<svg width="20" height="22" viewBox="0 0 20 22" fill="none" xmlns="http://www.w3.org/2000/svg">
<path d="M0.111457 16.6986C0.111457 16.5016 0.155622 16.3521 0.243952 16.2502C0.339077 16.1415 0.464778 16.0463 0.621054 15.9648C0.811304 15.8629 1.01514 15.7814 1.23257 15.7202C1.45 15.6523 1.65723 15.5775 1.85428 15.496C2.44541 15.2582 3.02635 14.9898 3.5971 14.6908C4.17464 14.3919 4.71821 14.0487 5.22781 13.6614C5.86651 13.179 6.42706 12.6388 6.90948 12.0409C7.3987 11.443 7.80298 10.8009 8.12232 10.1146C8.44167 9.42838 8.68288 8.70815 8.84595 7.95395C9.00902 7.19974 9.09056 6.42516 9.09056 5.63019C9.09056 4.97111 9.0396 4.32901 8.93768 3.70391C8.83576 3.07201 8.71685 2.43671 8.58096 1.79802C8.57417 1.76404 8.56737 1.73347 8.56058 1.70629C8.56058 1.67911 8.56058 1.64853 8.56058 1.61456C8.56058 1.39713 8.63532 1.21368 8.7848 1.0642C8.93428 0.914714 9.11774 0.839973 9.33516 0.839973C9.72246 0.839973 10.1199 0.877343 10.5276 0.952084C10.9421 1.02003 11.3498 1.11516 11.7507 1.23746C12.1583 1.35976 12.5524 1.50585 12.9329 1.67571C13.3202 1.84558 13.6837 2.02564 14.0235 2.21588C14.832 2.68471 15.5556 3.24527 16.1943 3.89756C16.8398 4.54304 17.3868 5.25648 17.8352 6.03786C18.2837 6.81245 18.6268 7.6414 18.8646 8.5247C19.1092 9.408 19.2315 10.3151 19.2315 11.2459C19.2315 12.204 19.1058 13.1281 18.8544 14.0182C18.6098 14.9015 18.2599 15.7304 17.8047 16.505C17.3494 17.2728 16.8059 17.9726 16.174 18.6045C15.5421 19.2364 14.8388 19.78 14.0642 20.2352C13.2896 20.6837 12.4573 21.0336 11.5672 21.285C10.6839 21.5296 9.76323 21.6519 8.80518 21.6519C7.99662 21.6519 7.17447 21.55 6.33873 21.3462C5.50979 21.1355 4.71482 20.8366 3.95382 20.4493C3.19962 20.062 2.49977 19.5897 1.85428 19.0326C1.21558 18.4754 0.678808 17.8469 0.243952 17.1471C0.155622 17.0112 0.111457 16.8617 0.111457 16.6986ZM8.80518 20.3372C9.64092 20.3372 10.4461 20.2284 11.2207 20.011C12.0021 19.7936 12.7291 19.4912 13.4017 19.1039C14.0812 18.7098 14.6961 18.2376 15.2465 17.6873C15.8036 17.1301 16.2793 16.5152 16.6734 15.8425C17.0742 15.1698 17.3834 14.4462 17.6008 13.6716C17.8183 12.8902 17.927 12.0817 17.927 11.2459C17.927 10.4849 17.8352 9.74773 17.6518 9.03429C17.4751 8.32086 17.2169 7.64479 16.8772 7.0061C16.5443 6.3674 16.14 5.77627 15.6644 5.2327C15.1887 4.68913 14.6554 4.21011 14.0642 3.79564C13.4799 3.38116 12.8446 3.03803 12.1583 2.76625C11.4789 2.48767 10.762 2.30082 10.0078 2.20569C10.1233 2.76965 10.2151 3.337 10.283 3.90775C10.3578 4.4717 10.3951 5.04245 10.3951 5.61999C10.3951 6.60521 10.2796 7.56665 10.0486 8.50431C9.82438 9.44197 9.48125 10.3457 9.01921 11.2154C8.62513 11.9628 8.16649 12.6287 7.6433 13.213C7.12012 13.7905 6.54597 14.3103 5.92086 14.7724C5.30255 15.2276 4.63668 15.6319 3.92324 15.9852C3.2166 16.3385 2.48278 16.6613 1.72178 16.9534C2.14985 17.4902 2.62887 17.9692 3.15885 18.3905C3.69562 18.8118 4.26637 19.1685 4.87109 19.4606C5.48261 19.746 6.11791 19.9635 6.77699 20.1129C7.44286 20.2624 8.11893 20.3372 8.80518 20.3372Z" fill="white"/>
</svg>
