<svg width="22" height="22" viewBox="0 0 22 22" fill="none" xmlns="http://www.w3.org/2000/svg">
<path d="M10.2442 2.60378V1.29921C10.2442 1.12255 10.3087 0.969668 10.4378 0.84057C10.5669 0.711472 10.7198 0.646923 10.8965 0.646923C11.0731 0.646923 11.226 0.711472 11.3551 0.84057C11.4842 0.969668 11.5488 1.12255 11.5488 1.29921V2.60378C11.5488 2.78044 11.4842 2.93332 11.3551 3.06241C11.226 3.19151 11.0731 3.25606 10.8965 3.25606C10.7198 3.25606 10.5669 3.19151 10.4378 3.06241C10.3087 2.93332 10.2442 2.78044 10.2442 2.60378ZM3.06907 3.90834C3.06907 3.73168 3.13362 3.5788 3.26272 3.44971C3.39182 3.32061 3.5447 3.25606 3.72136 3.25606C3.89802 3.25606 4.0509 3.32061 4.17999 3.44971L5.48456 4.75428C5.61366 4.88337 5.67821 5.03625 5.67821 5.21291C5.67821 5.38957 5.61366 5.54245 5.48456 5.67155C5.35547 5.80065 5.20259 5.8652 5.02593 5.8652C4.84927 5.8652 4.69639 5.80065 4.56729 5.67155L3.26272 4.36698C3.13362 4.23788 3.06907 4.085 3.06907 3.90834ZM16.1148 5.21291C16.1148 5.03625 16.1793 4.88337 16.3084 4.75428L17.613 3.44971C17.7421 3.32061 17.895 3.25606 18.0716 3.25606C18.2483 3.25606 18.4012 3.32061 18.5302 3.44971C18.6593 3.5788 18.7239 3.73168 18.7239 3.90834C18.7239 4.085 18.6593 4.23788 18.5302 4.36698L17.2257 5.67155C17.0966 5.80065 16.9437 5.8652 16.767 5.8652C16.5904 5.8652 16.4375 5.80065 16.3084 5.67155C16.1793 5.54245 16.1148 5.38957 16.1148 5.21291ZM5.67821 11.0835V10.9816C5.67821 10.2749 5.8175 9.61243 6.09608 8.99412C6.38145 8.36902 6.76195 7.82545 7.23758 7.36341C7.72 6.90138 8.27376 6.53787 8.89886 6.27287C9.53076 6.00109 10.1966 5.8652 10.8965 5.8652C11.6167 5.8652 12.2928 6.00109 12.9247 6.27287C13.5634 6.54466 14.1171 6.91836 14.586 7.39399C15.0616 7.86282 15.4353 8.41658 15.7071 9.05527C15.9789 9.68718 16.1148 10.3632 16.1148 11.0835C16.1148 11.8037 15.9789 12.4832 15.7071 13.1219C15.4353 13.7538 15.0616 14.3075 14.586 14.7831C14.1171 15.252 13.5634 15.6223 12.9247 15.8941C12.2928 16.1659 11.6167 16.3017 10.8965 16.3017C10.1763 16.3017 9.49679 16.1659 8.8581 15.8941C8.2262 15.6223 7.67243 15.252 7.19681 14.7831C6.72798 14.3075 6.35767 13.7538 6.08589 13.1219C5.8141 12.4832 5.67821 11.8037 5.67821 11.0835ZM14.8102 11.0835V11.0019C14.8102 10.472 14.7049 9.97595 14.4942 9.51391C14.2836 9.04508 13.9982 8.63741 13.6381 8.29088C13.278 7.94435 12.8601 7.67257 12.3845 7.47552C11.9157 7.27169 11.4197 7.16977 10.8965 7.16977C10.3529 7.16977 9.84332 7.27169 9.36769 7.47552C8.89207 7.67936 8.4776 7.95794 8.12428 8.31126C7.77096 8.66458 7.49238 9.07906 7.28854 9.55468C7.0847 10.0303 6.98278 10.5399 6.98278 11.0835C6.98278 11.627 7.0847 12.1366 7.28854 12.6123C7.49238 13.0879 7.77096 13.5024 8.12428 13.8557C8.4776 14.209 8.89207 14.4876 9.36769 14.6914C9.84332 14.8953 10.3529 14.9972 10.8965 14.9972C11.4401 14.9972 11.9497 14.8953 12.4253 14.6914C12.9009 14.4876 13.3154 14.209 13.6687 13.8557C14.022 13.5024 14.3006 13.0879 14.5044 12.6123C14.7083 12.1366 14.8102 11.627 14.8102 11.0835ZM1.11222 11.7358C0.93556 11.7358 0.782681 11.6712 0.653583 11.5421C0.524485 11.413 0.459936 11.2601 0.459936 11.0835C0.459936 10.9068 0.524485 10.7539 0.653583 10.6248C0.782681 10.4957 0.93556 10.4312 1.11222 10.4312H2.41679C2.59345 10.4312 2.74633 10.4957 2.87543 10.6248C3.00452 10.7539 3.06907 10.9068 3.06907 11.0835C3.06907 11.2601 3.00452 11.413 2.87543 11.5421C2.74633 11.6712 2.59345 11.7358 2.41679 11.7358H1.11222ZM19.3762 11.7358C19.1995 11.7358 19.0466 11.6712 18.9175 11.5421C18.7884 11.413 18.7239 11.2601 18.7239 11.0835C18.7239 10.9068 18.7884 10.7539 18.9175 10.6248C19.0466 10.4957 19.1995 10.4312 19.3762 10.4312H20.6807C20.8574 10.4312 21.0103 10.4957 21.1394 10.6248C21.2685 10.7539 21.333 10.9068 21.333 11.0835C21.333 11.2601 21.2685 11.413 21.1394 11.5421C21.0103 11.6712 20.8574 11.7358 20.6807 11.7358H19.3762ZM3.06907 18.2586C3.06907 18.0819 3.13362 17.9291 3.26272 17.8L4.56729 16.4954C4.69639 16.3663 4.84927 16.3017 5.02593 16.3017C5.20259 16.3017 5.35547 16.3663 5.48456 16.4954C5.61366 16.6245 5.67821 16.7774 5.67821 16.954C5.67821 17.1307 5.61366 17.2836 5.48456 17.4127L4.17999 18.7172C4.0509 18.8463 3.89802 18.9109 3.72136 18.9109C3.5447 18.9109 3.39182 18.8463 3.26272 18.7172C3.13362 18.5881 3.06907 18.4353 3.06907 18.2586ZM16.1148 16.954C16.1148 16.7774 16.1793 16.6245 16.3084 16.4954C16.4375 16.3663 16.5904 16.3017 16.767 16.3017C16.9437 16.3017 17.0966 16.3663 17.2257 16.4954L18.5302 17.8C18.6593 17.9291 18.7239 18.0819 18.7239 18.2586C18.7239 18.4353 18.6593 18.5881 18.5302 18.7172C18.4012 18.8463 18.2483 18.9109 18.0716 18.9109C17.895 18.9109 17.7421 18.8463 17.613 18.7172L16.3084 17.4127C16.1793 17.2836 16.1148 17.1307 16.1148 16.954ZM10.2442 20.8677V19.5632C10.2442 19.3865 10.3087 19.2336 10.4378 19.1045C10.5669 18.9754 10.7198 18.9109 10.8965 18.9109C11.0731 18.9109 11.226 18.9754 11.3551 19.1045C11.4842 19.2336 11.5488 19.3865 11.5488 19.5632V20.8677C11.5488 21.0444 11.4842 21.1973 11.3551 21.3264C11.226 21.4555 11.0731 21.52 10.8965 21.52C10.7198 21.52 10.5669 21.4555 10.4378 21.3264C10.3087 21.1973 10.2442 21.0444 10.2442 20.8677Z" fill="white"/>
</svg>
