<svg width="16" height="15" viewBox="0 0 16 15" fill="none" xmlns="http://www.w3.org/2000/svg">
<path d="M12 13.7422C12 13.6536 12.0156 13.5833 12.0469 13.5312C12.0833 13.474 12.1302 13.4141 12.1875 13.3516C12.2604 13.2786 12.3385 13.2109 12.4219 13.1484C12.5052 13.0807 12.5859 13.0104 12.6641 12.9375C13.0391 12.5938 13.3724 12.2135 13.6641 11.7969C13.9557 11.375 14.2005 10.9297 14.3984 10.4609C14.5964 9.99219 14.7448 9.50781 14.8438 9.00781C14.9479 8.50781 15 8.00521 15 7.5C15 7 14.9479 6.5 14.8438 6C14.7448 5.49479 14.5938 5.00781 14.3906 4.53906C14.1927 4.0651 13.9479 3.61719 13.6562 3.19531C13.3698 2.77344 13.0391 2.39323 12.6641 2.05469C12.5859 1.98177 12.5052 1.91406 12.4219 1.85156C12.3385 1.78385 12.2604 1.71354 12.1875 1.64062C12.125 1.57812 12.0781 1.52083 12.0469 1.46875C12.0156 1.41667 12 1.34375 12 1.25C12 1.10938 12.0469 0.992188 12.1406 0.898438C12.2396 0.804688 12.3594 0.757812 12.5 0.757812C12.5625 0.757812 12.6172 0.768229 12.6641 0.789062C12.7109 0.804688 12.7604 0.830729 12.8125 0.867188C13.0469 1.01823 13.2786 1.21094 13.5078 1.44531C13.737 1.67969 13.9531 1.93229 14.1562 2.20312C14.3646 2.46875 14.5547 2.74219 14.7266 3.02344C14.8984 3.30469 15.0443 3.57031 15.1641 3.82031C15.4401 4.39844 15.6484 4.9974 15.7891 5.61719C15.9297 6.23177 16 6.85938 16 7.5C16 8.13542 15.9297 8.76562 15.7891 9.39062C15.6484 10.0104 15.4401 10.6068 15.1641 11.1797C15.0443 11.4245 14.8984 11.6901 14.7266 11.9766C14.5547 12.2578 14.3646 12.5339 14.1562 12.8047C13.9479 13.0703 13.7292 13.3203 13.5 13.5547C13.2708 13.7891 13.0417 13.9818 12.8125 14.1328C12.7552 14.1693 12.7031 14.1979 12.6562 14.2188C12.6146 14.2344 12.5625 14.2422 12.5 14.2422C12.3646 14.2422 12.2474 14.1927 12.1484 14.0938C12.0495 13.9948 12 13.8776 12 13.7422ZM3.29688 10.5H1.5C1.29688 10.5 1.10417 10.4609 0.921875 10.3828C0.739583 10.3047 0.578125 10.1979 0.4375 10.0625C0.302083 9.92188 0.195312 9.76042 0.117188 9.57812C0.0390625 9.39583 0 9.20312 0 9V6C0 5.79688 0.0390625 5.60417 0.117188 5.42188C0.195312 5.23958 0.302083 5.08073 0.4375 4.94531C0.578125 4.80469 0.739583 4.69531 0.921875 4.61719C1.10417 4.53906 1.29688 4.5 1.5 4.5H3.29688L5.71875 2.07031C5.79167 1.9974 5.8724 1.94531 5.96094 1.91406C6.05469 1.8776 6.15104 1.85938 6.25 1.85938C6.46354 1.85938 6.64062 1.92969 6.78125 2.07031C6.92708 2.21094 7 2.38802 7 2.60156V12.3984C7 12.5026 6.97917 12.599 6.9375 12.6875C6.90104 12.776 6.84635 12.8568 6.77344 12.9297C6.70573 12.9974 6.625 13.0521 6.53125 13.0938C6.44271 13.1302 6.34896 13.1484 6.25 13.1484C6.04167 13.1484 5.86458 13.0755 5.71875 12.9297L3.29688 10.5ZM10.0312 11.9453C10.0312 11.8568 10.0443 11.7891 10.0703 11.7422C10.1016 11.6953 10.1458 11.638 10.2031 11.5703C10.4896 11.2474 10.7448 10.9375 10.9688 10.6406C11.1927 10.3438 11.3802 10.0391 11.5312 9.72656C11.6823 9.40885 11.7969 9.07031 11.875 8.71094C11.9583 8.35156 12 7.94792 12 7.5C12 7.05208 11.9583 6.64844 11.875 6.28906C11.7969 5.92969 11.6823 5.59375 11.5312 5.28125C11.3802 4.96354 11.1927 4.65625 10.9688 4.35938C10.7448 4.0625 10.4896 3.7526 10.2031 3.42969C10.1458 3.36198 10.1016 3.30469 10.0703 3.25781C10.0443 3.21094 10.0312 3.14323 10.0312 3.05469C10.0312 2.91927 10.0807 2.80469 10.1797 2.71094C10.2839 2.61198 10.4036 2.5625 10.5391 2.5625C10.6172 2.5625 10.6771 2.57292 10.7188 2.59375C10.7604 2.60938 10.8125 2.64062 10.875 2.6875C11.0312 2.80729 11.1849 2.95573 11.3359 3.13281C11.4922 3.30469 11.638 3.48958 11.7734 3.6875C11.9141 3.88542 12.0417 4.08854 12.1562 4.29688C12.2708 4.5 12.3672 4.69271 12.4453 4.875C12.8151 5.70833 13 6.58333 13 7.5C13 8.41667 12.8151 9.29167 12.4453 10.125C12.3724 10.2917 12.276 10.4818 12.1562 10.6953C12.0417 10.9036 11.9141 11.112 11.7734 11.3203C11.6328 11.5234 11.4844 11.7135 11.3281 11.8906C11.1771 12.0677 11.026 12.2083 10.875 12.3125C10.8177 12.349 10.763 12.3802 10.7109 12.4062C10.6641 12.4271 10.6068 12.4375 10.5391 12.4375C10.4036 12.4375 10.2839 12.3906 10.1797 12.2969C10.0807 12.1979 10.0312 12.0807 10.0312 11.9453ZM6 11.7891V3.20312L3.85156 5.35156C3.7526 5.45052 3.63542 5.5 3.5 5.5H1.5C1.36458 5.5 1.2474 5.54948 1.14844 5.64844C1.04948 5.7474 1 5.86458 1 6V9C1 9.13542 1.04948 9.2526 1.14844 9.35156C1.2474 9.45052 1.36458 9.5 1.5 9.5H3.5C3.63542 9.5 3.7526 9.54948 3.85156 9.64844L6 11.7891ZM8.09375 10.0391C8.09375 9.96615 8.10156 9.90885 8.11719 9.86719C8.13802 9.82552 8.16927 9.77604 8.21094 9.71875C8.33073 9.53646 8.4401 9.36198 8.53906 9.19531C8.63802 9.02344 8.72135 8.85156 8.78906 8.67969C8.85677 8.5026 8.90885 8.32031 8.94531 8.13281C8.98177 7.9401 9 7.72917 9 7.5C9 7.27604 8.98177 7.06771 8.94531 6.875C8.90885 6.68229 8.85677 6.5 8.78906 6.32812C8.72135 6.15104 8.63802 5.97917 8.53906 5.8125C8.4401 5.64062 8.33073 5.46354 8.21094 5.28125C8.16927 5.22396 8.13802 5.17448 8.11719 5.13281C8.10156 5.09115 8.09375 5.03385 8.09375 4.96094C8.09375 4.82552 8.14323 4.70833 8.24219 4.60938C8.34115 4.51042 8.45833 4.46094 8.59375 4.46094C8.68229 4.46094 8.75521 4.47656 8.8125 4.50781C8.86979 4.53906 8.92708 4.58594 8.98438 4.64844C9.15104 4.83073 9.29688 5.03646 9.42188 5.26562C9.54688 5.48958 9.65104 5.72917 9.73438 5.98438C9.82292 6.23438 9.88802 6.48958 9.92969 6.75C9.97656 7.01042 10 7.26042 10 7.5C10 7.72917 9.97656 7.97656 9.92969 8.24219C9.88802 8.5026 9.82292 8.76302 9.73438 9.02344C9.65104 9.27865 9.54427 9.52344 9.41406 9.75781C9.28906 9.98698 9.14583 10.1849 8.98438 10.3516C8.875 10.4714 8.74479 10.5312 8.59375 10.5312C8.45833 10.5312 8.34115 10.4844 8.24219 10.3906C8.14323 10.2917 8.09375 10.1745 8.09375 10.0391Z" fill="white"/>
</svg>
