<svg width="16" height="12" viewBox="0 0 16 12" fill="none" xmlns="http://www.w3.org/2000/svg">
<path d="M8 1.5C7.4375 1.5 6.88021 1.55729 6.32812 1.67188C5.78125 1.78125 5.25 1.94531 4.73438 2.16406C4.21875 2.3776 3.72656 2.64062 3.25781 2.95312C2.78906 3.26562 2.35677 3.6224 1.96094 4.02344C1.76302 4.22135 1.58594 4.42969 1.42969 4.64844C1.27344 4.86198 1.10677 5.07292 0.929688 5.28125C0.867188 5.35417 0.807292 5.40885 0.75 5.44531C0.692708 5.48177 0.614583 5.5 0.515625 5.5C0.375 5.5 0.255208 5.45312 0.15625 5.35938C0.0625 5.26042 0.015625 5.14062 0.015625 5C0.015625 4.90104 0.0442708 4.80729 0.101562 4.71875C0.513021 4.0625 1.01042 3.47396 1.59375 2.95312C2.18229 2.43229 2.82292 1.98958 3.51562 1.625C4.20833 1.26042 4.9349 0.981771 5.69531 0.789062C6.46094 0.596354 7.22917 0.5 8 0.5C8.76562 0.5 9.53125 0.596354 10.2969 0.789062C11.0625 0.981771 11.7891 1.26042 12.4766 1.625C13.1693 1.98958 13.8073 2.43229 14.3906 2.95312C14.9792 3.47396 15.4818 4.0625 15.8984 4.71875C15.9557 4.80729 15.9844 4.90104 15.9844 5C15.9844 5.14062 15.9349 5.26042 15.8359 5.35938C15.7422 5.45312 15.625 5.5 15.4844 5.5C15.3958 5.5 15.3177 5.48177 15.25 5.44531C15.1875 5.40365 15.1276 5.34896 15.0703 5.28125C15.013 5.20833 14.9583 5.13542 14.9062 5.0625C14.8594 4.98438 14.8073 4.90885 14.75 4.83594C14.6406 4.6901 14.526 4.55208 14.4062 4.42188C14.2865 4.28646 14.1641 4.15365 14.0391 4.02344C13.638 3.6224 13.2031 3.26562 12.7344 2.95312C12.2708 2.64062 11.7812 2.3776 11.2656 2.16406C10.7552 1.94531 10.224 1.78125 9.67188 1.67188C9.11979 1.55729 8.5625 1.5 8 1.5ZM8 4.5C7.61458 4.5 7.23177 4.54167 6.85156 4.625C6.47135 4.70833 6.10417 4.83073 5.75 4.99219C5.40104 5.14844 5.06771 5.34115 4.75 5.57031C4.4375 5.79948 4.15365 6.05729 3.89844 6.34375C3.77344 6.48438 3.65885 6.63281 3.55469 6.78906C3.45573 6.94531 3.34896 7.09896 3.23438 7.25C3.17188 7.32812 3.10938 7.39062 3.04688 7.4375C2.98958 7.47917 2.90885 7.5 2.80469 7.5C2.66927 7.5 2.55208 7.45052 2.45312 7.35156C2.35417 7.2526 2.30469 7.13542 2.30469 7C2.30469 6.91667 2.32552 6.83333 2.36719 6.75C2.63281 6.25521 2.97135 5.80729 3.38281 5.40625C3.79427 5.00521 4.25 4.66406 4.75 4.38281C5.25 4.10156 5.77604 3.88542 6.32812 3.73438C6.88542 3.57812 7.44271 3.5 8 3.5C8.55208 3.5 9.10677 3.57812 9.66406 3.73438C10.2214 3.88542 10.75 4.10156 11.25 4.38281C11.75 4.66406 12.2057 5.00521 12.6172 5.40625C13.0286 5.80729 13.3672 6.25521 13.6328 6.75C13.6745 6.83333 13.6953 6.91667 13.6953 7C13.6953 7.13542 13.6458 7.2526 13.5469 7.35156C13.4479 7.45052 13.3307 7.5 13.1953 7.5C13.0911 7.5 13.0078 7.47917 12.9453 7.4375C12.888 7.39062 12.8281 7.32812 12.7656 7.25C12.651 7.09896 12.5417 6.94531 12.4375 6.78906C12.3385 6.63281 12.2266 6.48438 12.1016 6.34375C11.8464 6.05729 11.5599 5.79948 11.2422 5.57031C10.9297 5.34115 10.5964 5.14844 10.2422 4.99219C9.89323 4.83073 9.52865 4.70833 9.14844 4.625C8.76823 4.54167 8.38542 4.5 8 4.5ZM8 7.5C7.70833 7.5 7.42969 7.54167 7.16406 7.625C6.89844 7.70312 6.64062 7.81771 6.39062 7.96875C6.25 8.05729 6.1276 8.14583 6.02344 8.23438C5.92448 8.32292 5.83333 8.41667 5.75 8.51562C5.67188 8.61458 5.59635 8.72135 5.52344 8.83594C5.45052 8.94531 5.3724 9.07031 5.28906 9.21094C5.23698 9.29948 5.17448 9.36979 5.10156 9.42188C5.02865 9.47396 4.9401 9.5 4.83594 9.5C4.69531 9.5 4.57552 9.45052 4.47656 9.35156C4.38281 9.2526 4.33594 9.13281 4.33594 8.99219C4.33594 8.92448 4.35156 8.85417 4.38281 8.78125C4.53385 8.44792 4.73958 8.14062 5 7.85938C5.26042 7.57812 5.55208 7.33854 5.875 7.14062C6.19792 6.9375 6.54167 6.78125 6.90625 6.67188C7.27083 6.55729 7.63542 6.5 8 6.5C8.375 6.5 8.74479 6.55469 9.10938 6.66406C9.47396 6.77344 9.8151 6.92708 10.1328 7.125C10.4557 7.32292 10.7448 7.5625 11 7.84375C11.2552 8.125 11.4609 8.4375 11.6172 8.78125C11.6484 8.85417 11.6641 8.92448 11.6641 8.99219C11.6641 9.1276 11.6146 9.2474 11.5156 9.35156C11.4167 9.45052 11.2995 9.5 11.1641 9.5C11.0599 9.5 10.9714 9.47396 10.8984 9.42188C10.8255 9.36979 10.763 9.29948 10.7109 9.21094C10.6276 9.07031 10.5495 8.94531 10.4766 8.83594C10.4036 8.72135 10.3255 8.61458 10.2422 8.51562C10.1589 8.41667 10.0651 8.32292 9.96094 8.23438C9.86198 8.14583 9.74219 8.05729 9.60156 7.96875C9.35677 7.81771 9.09896 7.70312 8.82812 7.625C8.5625 7.54167 8.28646 7.5 8 7.5ZM6.75 10.5C6.75 10.3281 6.78385 10.1667 6.85156 10.0156C6.91927 9.86458 7.00781 9.73438 7.11719 9.625C7.23177 9.51042 7.36458 9.41927 7.51562 9.35156C7.66667 9.28385 7.82812 9.25 8 9.25C8.17188 9.25 8.33333 9.28385 8.48438 9.35156C8.63542 9.41927 8.76562 9.51042 8.875 9.625C8.98958 9.73438 9.08073 9.86458 9.14844 10.0156C9.21615 10.1667 9.25 10.3281 9.25 10.5C9.25 10.6719 9.21615 10.8333 9.14844 10.9844C9.08073 11.1354 8.98958 11.2682 8.875 11.3828C8.76562 11.4922 8.63542 11.5807 8.48438 11.6484C8.33333 11.7161 8.17188 11.75 8 11.75C7.82812 11.75 7.66667 11.7161 7.51562 11.6484C7.36458 11.5807 7.23177 11.4922 7.11719 11.3828C7.00781 11.2682 6.91927 11.1354 6.85156 10.9844C6.78385 10.8333 6.75 10.6719 6.75 10.5Z" fill="white"/>
</svg>
