<svg width="22" height="22" viewBox="0 0 22 22" fill="none" xmlns="http://www.w3.org/2000/svg">
<path d="M7.61765 19.8033C7.61765 19.7625 7.61765 19.7218 7.61765 19.681C7.62445 19.6402 7.63124 19.5995 7.63804 19.5587L8.49416 13.5964H5.44677L3.39819 15.9813C3.26909 16.1308 3.10602 16.2056 2.90898 16.2056H1.60441C1.42775 16.2056 1.27487 16.141 1.14577 16.0119C1.01667 15.8828 0.952124 15.7299 0.952124 15.5533V6.43148C0.952124 6.25482 1.01667 6.10194 1.14577 5.97284C1.27487 5.84375 1.42775 5.7792 1.60441 5.7792H2.90898C3.10602 5.7792 3.26909 5.85394 3.39819 6.00342L5.44677 8.38833H8.49416L7.63804 2.42605C7.63124 2.38528 7.62445 2.34451 7.61765 2.30375C7.61765 2.26298 7.61765 2.22221 7.61765 2.18144C7.61765 1.94363 7.66182 1.7262 7.75015 1.52916C7.84527 1.32532 7.97097 1.15206 8.12725 1.00937C8.29032 0.866682 8.47378 0.75457 8.67762 0.673035C8.88825 0.591499 9.10907 0.550732 9.34009 0.550732C9.61188 0.550732 9.87687 0.598294 10.1351 0.693419C10.4001 0.781749 10.6447 0.904052 10.8689 1.06033C11.0999 1.21661 11.3037 1.40346 11.4804 1.62089C11.6571 1.83831 11.7997 2.06933 11.9085 2.31394L14.5176 8.38833H19.2059C19.566 8.38833 19.9023 8.45628 20.2149 8.59217C20.5342 8.72807 20.8128 8.91492 21.0506 9.15273C21.2884 9.39054 21.4753 9.66912 21.6112 9.98847C21.7471 10.301 21.815 10.6374 21.815 10.9975C21.815 11.3576 21.7437 11.6939 21.601 12.0065C21.4651 12.319 21.2783 12.5942 21.0404 12.832C20.8094 13.0698 20.5342 13.2567 20.2149 13.3926C19.8955 13.5285 19.5592 13.5964 19.2059 13.5964H14.5176L11.9085 19.6708C11.793 19.9358 11.6435 20.177 11.46 20.3944C11.2766 20.6119 11.0693 20.7987 10.8383 20.955C10.6073 21.1045 10.3559 21.22 10.0841 21.3015C9.81911 21.3831 9.54053 21.4238 9.24836 21.4238C9.02414 21.4238 8.81351 21.3831 8.61646 21.3015C8.41942 21.2132 8.24616 21.0977 8.09667 20.955C7.95399 20.8055 7.83848 20.6323 7.75015 20.4352C7.66182 20.2382 7.61765 20.0275 7.61765 19.8033ZM20.5105 10.9975C20.5105 10.814 20.4765 10.6442 20.4085 10.4879C20.3406 10.3316 20.2455 10.1957 20.1232 10.0802C20.0077 9.95789 19.8718 9.86277 19.7155 9.79482C19.5592 9.72688 19.3893 9.6929 19.2059 9.6929H14.0793C13.9502 9.6929 13.8313 9.65553 13.7226 9.58079C13.6207 9.50605 13.5426 9.41093 13.4882 9.29542L10.716 2.83373C10.5937 2.54835 10.3967 2.31733 10.1249 2.14067C9.85309 1.95722 9.56092 1.86549 9.24836 1.86549C9.17362 1.86549 9.09888 1.89607 9.02414 1.95722C8.9562 2.01837 8.92222 2.08971 8.92222 2.17125C8.92222 2.18484 8.92222 2.19843 8.92222 2.21202C8.92902 2.21881 8.93241 2.229 8.93241 2.24259L9.89046 8.94889V9.03043C9.89046 9.22068 9.8293 9.38035 9.707 9.50945C9.5847 9.63175 9.42842 9.6929 9.23817 9.6929H5.14101C5.04589 9.6929 4.95416 9.67252 4.86583 9.63175C4.78429 9.59098 4.71295 9.53323 4.6518 9.45849L2.60322 7.08377H2.25669V14.901H2.60322L4.6518 12.5263C4.78769 12.37 4.95076 12.2918 5.14101 12.2918H9.23817C9.41483 12.2918 9.56771 12.3598 9.69681 12.4957C9.8327 12.6248 9.90065 12.7777 9.90065 12.9543L9.89046 13.0359L8.93241 19.7422C8.93241 19.7557 8.92902 19.7659 8.92222 19.7727C8.92222 19.7795 8.92222 19.7897 8.92222 19.8033C8.92222 19.8916 8.9562 19.9664 9.02414 20.0275C9.09209 20.0887 9.16683 20.1193 9.24836 20.1193C9.56092 20.1193 9.85309 20.0309 10.1249 19.8543C10.3967 19.6708 10.5937 19.4364 10.716 19.151L13.4882 12.6893C13.5426 12.5738 13.6207 12.4787 13.7226 12.404C13.8313 12.3292 13.9502 12.2918 14.0793 12.2918H19.2059C19.3893 12.2918 19.5592 12.2579 19.7155 12.1899C19.8718 12.122 20.0077 12.0303 20.1232 11.9147C20.2455 11.7992 20.3406 11.6633 20.4085 11.5071C20.4765 11.3508 20.5105 11.1809 20.5105 10.9975Z" fill="white"/>
</svg>
