<svg width="19" height="22" viewBox="0 0 19 22" fill="none" xmlns="http://www.w3.org/2000/svg">
<path d="M18.8664 6.01797C18.8664 6.24898 18.829 6.4766 18.7542 6.70083C18.6863 6.91826 18.5878 7.12209 18.4587 7.31234C18.3296 7.4958 18.1733 7.65887 17.9898 7.80156C17.8132 7.94424 17.6161 8.05636 17.3987 8.13789L13.6481 9.56476V12.6937C13.6481 12.7141 13.6956 12.8568 13.7908 13.1218C13.8859 13.3867 14.0048 13.7197 14.1475 14.1206C14.297 14.5146 14.4566 14.9495 14.6265 15.4251C14.8032 15.894 14.9696 16.3458 15.1259 16.7807C15.289 17.2087 15.4283 17.5892 15.5438 17.9222C15.6661 18.2551 15.7476 18.4793 15.7884 18.5948C15.8292 18.7239 15.8631 18.853 15.8903 18.9821C15.9175 19.1112 15.9311 19.2437 15.9311 19.3796C15.9311 19.699 15.8699 19.9979 15.7476 20.2765C15.6321 20.5483 15.469 20.7895 15.2584 21.0001C15.0478 21.204 14.8032 21.367 14.5246 21.4893C14.246 21.6048 13.9504 21.6626 13.6379 21.6626C13.4001 21.6626 13.1691 21.6286 12.9448 21.5607C12.7274 21.4859 12.5236 21.384 12.3333 21.2549C12.1431 21.119 11.9766 20.9594 11.8339 20.7759C11.6912 20.5856 11.5791 20.3784 11.4976 20.1542L9.73438 15.2926L7.96098 20.1542C7.87944 20.3852 7.76733 20.5924 7.62464 20.7759C7.48196 20.9594 7.31549 21.119 7.12524 21.2549C6.94178 21.384 6.73794 21.4859 6.51372 21.5607C6.29629 21.6286 6.06528 21.6626 5.82067 21.6626C5.50812 21.6626 5.21255 21.6048 4.93397 21.4893C4.65539 21.367 4.41078 21.204 4.20015 21.0001C3.99631 20.7895 3.83324 20.5449 3.71094 20.2663C3.59543 19.9877 3.53767 19.6922 3.53767 19.3796C3.53767 19.2437 3.55126 19.1112 3.57844 18.9821C3.60562 18.853 3.63959 18.7239 3.68036 18.5948C3.70754 18.5065 3.7585 18.357 3.83324 18.1464C3.91478 17.9357 4.0065 17.6877 4.10842 17.4024C4.21714 17.1102 4.33265 16.7942 4.45495 16.4545C4.58405 16.1148 4.70975 15.7751 4.83205 15.4353C4.96115 15.0888 5.08345 14.7559 5.19896 14.4365C5.32126 14.1104 5.42658 13.8216 5.51491 13.5702C5.61004 13.3188 5.68478 13.115 5.73913 12.9587C5.79349 12.8024 5.82067 12.7175 5.82067 12.7039V9.56476L2.07003 8.13789C1.84581 8.05636 1.64197 7.94424 1.45852 7.80156C1.28186 7.65208 1.12898 7.48561 0.999881 7.30215C0.877578 7.1187 0.779056 6.91826 0.704315 6.70083C0.636368 6.4766 0.602395 6.24559 0.602395 6.00778C0.602395 5.69522 0.66015 5.39966 0.775658 5.12108C0.897962 4.8425 1.06103 4.60129 1.26487 4.39745C1.4755 4.18682 1.71671 4.02374 1.9885 3.90824C2.26708 3.78593 2.56604 3.72478 2.88539 3.72478C3.16397 3.72478 3.43576 3.77574 3.70075 3.87766L6.60545 4.98858C6.55789 4.82551 6.52391 4.65904 6.50353 4.48918C6.48315 4.31931 6.47295 4.14944 6.47295 3.97958C6.47295 3.53793 6.56128 3.12346 6.73794 2.73616C6.9146 2.34887 7.15242 2.01253 7.45138 1.72716C7.75034 1.43499 8.09687 1.20737 8.49096 1.0443C8.88505 0.874434 9.29952 0.789501 9.73438 0.789501C10.1692 0.789501 10.5837 0.874434 10.9778 1.0443C11.3719 1.20737 11.7184 1.43499 12.0174 1.72716C12.3163 2.01253 12.5541 2.34887 12.7308 2.73616C12.9075 3.12346 12.9958 3.53793 12.9958 3.97958C12.9958 4.14944 12.9856 4.31931 12.9652 4.48918C12.9448 4.65904 12.9075 4.82551 12.8531 4.98858L15.768 3.87766C16.033 3.77574 16.3048 3.72478 16.5834 3.72478C16.8959 3.72478 17.1915 3.78593 17.4701 3.90824C17.7486 4.02374 17.9898 4.18682 18.1937 4.39745C18.4043 4.60808 18.5674 4.85269 18.6829 5.13127C18.8052 5.40985 18.8664 5.70541 18.8664 6.01797ZM7.77752 4.05092C7.77752 4.31591 7.82848 4.56731 7.9304 4.80513C8.03232 5.04294 8.17161 5.25357 8.34827 5.43703C8.53173 5.61369 8.74236 5.75298 8.98017 5.8549C9.21798 5.95682 9.46938 6.00778 9.73438 6.00778C9.99937 6.00778 10.2508 5.95682 10.4886 5.8549C10.7264 5.75298 10.9336 5.61369 11.1103 5.43703C11.2937 5.25357 11.4364 5.04294 11.5383 4.80513C11.6403 4.56731 11.6912 4.31591 11.6912 4.05092C11.6912 3.78593 11.6403 3.53453 11.5383 3.29672C11.4364 3.05891 11.2937 2.85167 11.1103 2.67501C10.9336 2.49156 10.7264 2.34887 10.4886 2.24695C10.2508 2.14503 9.99937 2.09407 9.73438 2.09407C9.46938 2.09407 9.21798 2.14503 8.98017 2.24695C8.74236 2.34887 8.53173 2.49156 8.34827 2.67501C8.17161 2.85167 8.03232 3.05891 7.9304 3.29672C7.82848 3.53453 7.77752 3.78593 7.77752 4.05092ZM17.5618 5.99758C17.5618 5.86849 17.5346 5.74618 17.4803 5.63067C17.4327 5.50837 17.3613 5.40305 17.2662 5.31472C17.1779 5.22639 17.0726 5.15845 16.9503 5.11088C16.8348 5.05653 16.7125 5.02935 16.5834 5.02935C16.4611 5.02935 16.3455 5.04973 16.2368 5.0905L10.774 7.16966C10.6109 7.23081 10.441 7.27837 10.2644 7.31234C10.0877 7.34632 9.91104 7.3633 9.73438 7.3633C9.38785 7.3633 9.03793 7.29875 8.68461 7.16966L3.23192 5.0905C3.11641 5.04973 3.0009 5.02935 2.88539 5.02935C2.60681 5.02935 2.3724 5.12447 2.18215 5.31472C1.99869 5.49818 1.90696 5.7292 1.90696 6.00778C1.90696 6.21161 1.96132 6.39847 2.07003 6.56833C2.18554 6.7314 2.34182 6.85031 2.53886 6.92505L6.70737 8.5048C6.83647 8.55236 6.93839 8.6339 7.01313 8.74941C7.08787 8.85812 7.12524 8.98042 7.12524 9.11632V12.816C7.12524 12.9043 7.11165 12.9791 7.08447 13.0402L4.90339 19.0433C4.86263 19.1588 4.84224 19.2709 4.84224 19.3796C4.84224 19.6514 4.93737 19.8824 5.12762 20.0727C5.31787 20.2629 5.54888 20.358 5.82067 20.358C6.02451 20.358 6.20796 20.3003 6.37103 20.1848C6.5409 20.0693 6.6632 19.913 6.73794 19.7159L8.51134 14.8544C8.60647 14.5826 8.75935 14.372 8.96998 14.2225C9.18741 14.0662 9.44221 13.9881 9.73438 13.9881C10.0265 13.9881 10.2779 14.0662 10.4886 14.2225C10.706 14.372 10.8623 14.5826 10.9574 14.8544L12.7308 19.7159C12.8055 19.913 12.9245 20.0693 13.0875 20.1848C13.2506 20.3003 13.4374 20.358 13.6481 20.358C13.9199 20.358 14.1509 20.2629 14.3411 20.0727C14.5314 19.8824 14.6265 19.6514 14.6265 19.3796C14.6265 19.2709 14.6061 19.1588 14.5654 19.0433L12.3843 13.0402C12.3571 12.9791 12.3435 12.9043 12.3435 12.816V9.11632C12.3435 8.98042 12.3809 8.85812 12.4556 8.74941C12.5304 8.6339 12.6323 8.55236 12.7614 8.5048L16.9299 6.92505C17.1269 6.85031 17.2798 6.7314 17.3885 6.56833C17.504 6.39847 17.5618 6.20822 17.5618 5.99758Z" fill="white"/>
</svg>
