<?xml version="1.0" encoding="UTF-8"?>
<svg version="1.1" xmlns="http://www.w3.org/2000/svg" width="96" height="96">
<path d="M0 0 C19.8 0 39.6 0 60 0 C64.65952833 18.63811334 66.40143199 37.70060782 66.3125 56.875 C66.30986145 57.58188965 66.3072229 58.2887793 66.30450439 59.01708984 C66.23134907 70.76865093 66.23134907 70.76865093 65 72 C62.32941149 72.14115161 59.67567762 72.04247107 57 72 C57 71.34 57 70.68 57 70 C42.48 70 27.96 70 13 70 C13 70.66 13 71.32 13 72 C10.02077407 72.02683987 7.04178705 72.04676037 4.0625 72.0625 C3.21236328 72.07087891 2.36222656 72.07925781 1.48632812 72.08789062 C0.67744141 72.09111328 -0.13144531 72.09433594 -0.96484375 72.09765625 C-1.7137085 72.10289307 -2.46257324 72.10812988 -3.23413086 72.11352539 C-5 72 -5 72 -6 71 C-6.3579378 66.42745785 -6.34533198 61.83506931 -6.375 57.25 C-6.38022675 56.55380554 -6.38545349 55.85761108 -6.39083862 55.14031982 C-6.43302792 42.82629641 -5.28003378 30.81029891 -3.5625 18.625 C-3.38965485 17.3952948 -3.38965485 17.3952948 -3.21331787 16.14074707 C-2.88124175 13.81381674 -2.53993554 11.48858175 -2.19140625 9.1640625 C-2.08716843 8.46654877 -1.9829306 7.76903503 -1.87553406 7.05038452 C-1.12304044 2.24608087 -1.12304044 2.24608087 0 0 Z " fill="#646A6F" transform="translate(18,12)"/>
<path d="M0 0 C0.99 0.495 0.99 0.495 2 1 C4.14407645 1.09693913 6.29123371 1.12796864 8.4375 1.12939453 C9.4279834 1.13202301 9.4279834 1.13202301 10.43847656 1.13470459 C12.62567761 1.13911325 14.8127981 1.13618859 17 1.1328125 C18.51692724 1.13348582 20.03385438 1.13445609 21.55078125 1.13571167 C24.73178127 1.1371873 27.91275324 1.13503839 31.09375 1.13037109 C35.17621087 1.12467388 39.258606 1.1279536 43.34106445 1.13394356 C46.47396339 1.13755279 49.60684669 1.13640891 52.73974609 1.13381577 C54.24528003 1.1331475 55.75081537 1.13397143 57.25634766 1.13629532 C59.35843686 1.13882775 61.46041881 1.13497289 63.5625 1.12939453 C64.76003906 1.12859894 65.95757812 1.12780334 67.19140625 1.12698364 C69.95318952 1.19272155 69.95318952 1.19272155 72 0 C72.02887814 3.47914941 72.04675687 6.95826831 72.0625 10.4375 C72.07087891 11.43072266 72.07925781 12.42394531 72.08789062 13.44726562 C72.09111328 14.39150391 72.09433594 15.33574219 72.09765625 16.30859375 C72.10289307 17.18314209 72.10812988 18.05769043 72.11352539 18.95874023 C72 21 72 21 71 22 C68.32941149 22.14115161 65.67567762 22.04247107 63 22 C63 21.34 63 20.68 63 20 C48.48 20 33.96 20 19 20 C19 20.66 19 21.32 19 22 C16.02077407 22.02683987 13.04178705 22.04676037 10.0625 22.0625 C8.78729492 22.07506836 8.78729492 22.07506836 7.48632812 22.08789062 C6.67744141 22.09111328 5.86855469 22.09433594 5.03515625 22.09765625 C4.2862915 22.10289307 3.53742676 22.10812988 2.76586914 22.11352539 C1 22 1 22 0 21 C-0.08685603 19.43827255 -0.10702219 17.87270656 -0.09765625 16.30859375 C-0.09443359 15.36435547 -0.09121094 14.42011719 -0.08789062 13.44726562 C-0.07951172 12.45404297 -0.07113281 11.46082031 -0.0625 10.4375 C-0.05798828 9.44041016 -0.05347656 8.44332031 -0.04882812 7.41601562 C-0.03700007 4.94395151 -0.02051849 2.47200482 0 0 Z " fill="#9EA6AF" transform="translate(12,62)"/>
<path d="M0 0 C1.32 0 2.64 0 4 0 C4 2.64 4 5.28 4 8 C5.32 8 6.64 8 8 8 C8 5.36 8 2.72 8 0 C9.98 0 11.96 0 14 0 C14 2.64 14 5.28 14 8 C15.32 8 16.64 8 18 8 C18 5.36 18 2.72 18 0 C19.32 0 20.64 0 22 0 C22 2.64 22 5.28 22 8 C23.32 8 24.64 8 26 8 C26 5.36 26 2.72 26 0 C27.32 0 28.64 0 30 0 C30 2.64 30 5.28 30 8 C31.32 8 32.64 8 34 8 C34 6.02 34 4.04 34 2 C36 4 36 4 37 12 C22.48 12 7.96 12 -7 12 C-6 4 -6 4 -4 2 C-4 3.98 -4 5.96 -4 8 C-2.68 8 -1.36 8 0 8 C0 5.36 0 2.72 0 0 Z " fill="#61686D" transform="translate(38,70)"/>
<path d="M0 0 C2.625 0.375 2.625 0.375 5 1 C5.625 3.375 5.625 3.375 6 6 C5.34 6.66 4.68 7.32 4 8 C1.375 7.625 1.375 7.625 -1 7 C-1.625 4.625 -1.625 4.625 -2 2 C-1.34 1.34 -0.68 0.68 0 0 Z " fill="#42E962" transform="translate(20,70)"/>
<path d="M0 0 C1.32 0 2.64 0 4 0 C4 2.64 4 5.28 4 8 C2.68 8 1.36 8 0 8 C0 5.36 0 2.72 0 0 Z " fill="#F7C94A" transform="translate(60,70)"/>
<path d="M0 0 C1.32 0 2.64 0 4 0 C4 2.64 4 5.28 4 8 C2.68 8 1.36 8 0 8 C0 5.36 0 2.72 0 0 Z " fill="#F7C94A" transform="translate(52,70)"/>
<path d="M0 0 C1.32 0 2.64 0 4 0 C4 2.64 4 5.28 4 8 C2.68 8 1.36 8 0 8 C0 5.36 0 2.72 0 0 Z " fill="#F7C94A" transform="translate(42,70)"/>
<path d="M0 0 C1.32 0.33 2.64 0.66 4 1 C4 3.31 4 5.62 4 8 C2.68 8 1.36 8 0 8 C0 5.36 0 2.72 0 0 Z " fill="#F3C74D" transform="translate(68,70)"/>
<path d="M0 0 C0.99 0 1.98 0 3 0 C3 2.64 3 5.28 3 8 C1.68 8 0.36 8 -1 8 C-1.04241723 5.66705225 -1.04092937 3.33297433 -1 1 C-0.67 0.67 -0.34 0.34 0 0 Z " fill="#F3C74D" transform="translate(35,70)"/>
<path d="M0 0 C1.65 0.33 3.3 0.66 5 1 C4.67 1.99 4.34 2.98 4 4 C2.35 3.67 0.7 3.34 -1 3 C-0.67 2.01 -0.34 1.02 0 0 Z " fill="#BFBFC0" transform="translate(73,56)"/>
<path d="M0 0 C1.65 0.33 3.3 0.66 5 1 C4.67 1.99 4.34 2.98 4 4 C2.35 3.67 0.7 3.34 -1 3 C-0.67 2.01 -0.34 1.02 0 0 Z " fill="#BFBFC0" transform="translate(19,56)"/>
<path d="M0 0 C1.65 0.33 3.3 0.66 5 1 C4.67 1.99 4.34 2.98 4 4 C2.35 3.67 0.7 3.34 -1 3 C-0.67 2.01 -0.34 1.02 0 0 Z " fill="#C1C2C3" transform="translate(69,16)"/>
<path d="M0 0 C1.65 0.33 3.3 0.66 5 1 C4.67 1.99 4.34 2.98 4 4 C2.35 3.67 0.7 3.34 -1 3 C-0.67 2.01 -0.34 1.02 0 0 Z " fill="#C1C2C3" transform="translate(23,16)"/>
<path d="M0 0 C2.4375 0.375 2.4375 0.375 5 1 C5.33 1.66 5.66 2.32 6 3 C3.36 3 0.72 3 -2 3 C-1.34 2.01 -0.68 1.02 0 0 Z " fill="#66F17F" transform="translate(20,70)"/>
</svg>
